<?xml version="1.0" encoding="utf-8"?>
<!-- Generator: Adobe Illustrator 26.2.1, SVG Export Plug-In . SVG Version: 6.00 Build 0)  -->
<svg version="1.1" id="Layer_1" xmlns="http://www.w3.org/2000/svg" xmlns:xlink="http://www.w3.org/1999/xlink" x="0px" y="0px"
	 viewBox="0 0 257 130" style="enable-background:new 0 0 257 130;" xml:space="preserve">
<style type="text/css">
	.st0{fill:#003658;}
	.st1{fill:#FFFFFF;}
	.st2{clip-path:url(#SVGID_00000052064793178844430670000004629750667569600688_);}
	.st3{fill:#59626C;}
</style>
<g id="Group_3_00000008833796097585512960000000226058245104409742_" transform="translate(0 0)">
	<path id="Path_1_00000140704099018044330700000002886733790199773869_" class="st0" d="M147.5,80.9l44,32.7l31.7,9.2L236,78.5
		l-2.6-0.8l-12.1,41.7l-28.6-8.3l-41.7-31l12.8-22.7l-0.5-0.1l-0.1-4.5L147.5,80.9z"/>
	<path id="Path_2_00000078751961682868621760000005490127436688254121_" class="st0" d="M178.2,7.2l-2.6,9.1l-12.8-3.7l0.5,40.4
		l0.1,4.5l0.5,0.1l2.2-4l-0.5-37.4l11.9,3.5l2.6-9.1l67.2,19.5l-13.1,45l0,0l-0.8,2.6l2.6,0.8l0,0l14.6-50.3L178.2,7.2z"/>
	<path id="Path_3_00000147921256193661497600000003205770593847491003_" class="st1" d="M192.7,111.1l28.6,8.3l12.1-41.7l0.8-2.6
		l-2.6-0.8L219.4,116l-25.5-7.4l-39.3-29.2l13.3-23.6l-1.8-0.5l0-1.8l-2.2,4L151,80.2L192.7,111.1z"/>
	<g id="Group_2_00000005259730395963245850000017926694208221784237_" transform="translate(0 0)">
		<g>
			<defs>
				<rect id="SVGID_1_" x="6.4" y="7.2" width="244.2" height="115.7"/>
			</defs>
			<clipPath id="SVGID_00000091016122506404376300000015255033516485227185_">
				<use xlink:href="#SVGID_1_"  style="overflow:visible;"/>
			</clipPath>
			
				<g id="Group_1_00000083057821160182836170000000070436241888869272_" style="clip-path:url(#SVGID_00000091016122506404376300000015255033516485227185_);">
				<path id="Path_4_00000035510667418149884300000001390146090336807089_" class="st1" d="M167.9,55.9l0.2-0.4l23.6,6.8
					c0.1,0.3,0.2,0.5,0.2,0.8c0,0.9-0.3,1.5-2.2,2.7c-1.7,1-2.8,2.6-3.1,4.5c-0.3,1.9,0.2,3.8,1.4,5.2c1.6,1.8,3.6,3,5.9,3.6
					c2.2,0.7,4.6,0.8,6.9,0.1c3.4-1.1,5.3-4.7,4.3-8.1c-0.1-0.3-0.2-0.6-0.3-0.9c-0.1-0.2-0.2-0.4-0.3-0.6c-0.2-0.3-0.3-0.7-0.4-1.1
					c-0.3-0.8-0.1-1.8,0.5-2.4c0.1-0.1,0.2-0.2,0.3-0.2l26.8,7.8l-0.1,0.5l2.6,0.8l0,0l13.1-45l-67.2-19.5l-2.6,9.1l-11.9-3.5
					l0.5,37.4l0,1.8L167.9,55.9z M168.3,19.8l7.7,2.2l0,0l0,0.1l3.2,0.9l2.6-9.1l61.9,18l-11.5,39.8L205,63.8
					c-0.8,0-1.5,0.3-2.1,0.9c-1.2,1.2-1.7,2.9-1.1,4.5c0.2,0.7,0.5,1.4,0.8,2c1,2.1,0.2,4.6-1.9,5.7c-0.2,0.1-0.5,0.2-0.7,0.3
					c-3.1,1.1-8.2-0.4-10.3-3c-1.5-1.7-1.4-4.4,0.4-5.9c0.2-0.2,0.5-0.4,0.8-0.5c1.7-1.1,3.2-2.3,3.2-4.6c0.1-1.1-0.4-2.2-1.4-2.8
					l-24-7L168.3,19.8z"/>
				<path id="Path_5_00000145037715055059150460000013918960649809702793_" class="st3" d="M204.8,66.1c-0.1,0-0.2,0.1-0.3,0.2
					c-0.6,0.6-0.9,1.5-0.5,2.4c0.1,0.4,0.3,0.7,0.4,1.1c0.1,0.2,0.2,0.4,0.3,0.6c1.5,3.2,0.2,7.1-3.1,8.6c-0.3,0.1-0.6,0.3-0.9,0.3
					c-2.3,0.7-4.7,0.6-6.9-0.1c-2.3-0.6-4.3-1.9-5.9-3.6c-1.2-1.5-1.7-3.4-1.4-5.2c0.3-1.9,1.5-3.5,3.1-4.5c1.8-1.2,2.2-1.8,2.2-2.7
					c0-0.3,0-0.6-0.2-0.8l-23.6-6.8l-0.3,0.4l-13.3,23.6l39.3,29.2l25.5,7.4l12.1-41.7l0.1-0.5L204.8,66.1z"/>
				<path id="Path_6_00000045603307832491908440000017062699384030859965_" class="st3" d="M23.2,56.2c5.6,0,8.5-3.3,8.5-9.1
					c0-10.3-11.1-11.7-11.1-19.2c0-2.6,1-3.6,2.8-3.6s2.8,1,2.8,3.6v1.5h5.4v-1.1c0-5.8-2.8-9.1-8.4-9.1s-8.4,3.3-8.4,9.1
					C14.9,38.6,26,40,26,47.4c0,2.6-1.1,3.5-2.9,3.5s-2.9-0.9-2.9-3.5v-2.6h-5.4v2.2C14.7,52.9,17.6,56.2,23.2,56.2"/>
				<path id="Path_7_00000041992473704052500130000014721719189463545785_" class="st3" d="M80.3,49.2h7l1,6.6H94l-5.8-36.2h-8.3
					l-5.8,36.2h5.2L80.3,49.2z M83.8,26l2.7,18.3H81L83.8,26z"/>
				<path id="Path_8_00000033363680615011584400000008645880285486681510_" class="st3" d="M111.6,41h2c2.6,0,3.7,1.2,3.7,4.6v5.7
					c0,2.9,0.2,3.5,0.5,4.4h5.8c-0.5-1.4-0.7-2.9-0.6-4.4v-5.6c0-3.8-0.9-6.5-3.8-7.7c2.5-1.2,3.7-3.6,3.7-7.3v-2.8
					c0-5.6-2.5-8.3-8.4-8.3h-8.6v36.2h5.7L111.6,41z M111.6,24.7h2.7c2,0,2.9,1.1,2.9,3.7V32c0,2.9-1.3,3.8-3.4,3.8h-2.2L111.6,24.7
					z"/>
				<path id="Path_9_00000064326618349121125190000015193646387548723876_" class="st3" d="M151.5,50.6h-9.8V40h7.8v-5.2h-7.8V24.7
					h9.8v-5.2H136v36.2h15.5V50.6z"/>
				<path id="Path_10_00000006704507867816997630000006835133562476066716_" class="st3" d="M49.1,48.7c0.3,0,0.5,0,0.8,0.1v-8.5
					h6.5v15.5h5.8V19.6h-5.8v15.5h-6.5V19.6h-5.7v31.6c0.7-0.6,1.4-1.1,2.1-1.5C47.2,49.1,48.1,48.8,49.1,48.7"/>
				<path id="Path_11_00000079452222867993301630000005025783105762821020_" class="st0" d="M54.2,70.4c0.2-0.1,0.4-0.3,0.5-0.5
					c0-0.2-0.1-0.4-0.4-0.4c-0.4,0-0.8,0-1.2,0.1c-1.5,0.1-2.5,0.2-3.1,0.2c-0.6,0-1,0-1.4,0.1c-0.4,0-0.7,0.1-1.1,0.1
					c-0.4,0.1-1.2,0.2-2.4,0.4c0.4-1.4,0.9-2.8,1.4-4.1c0.5-1.3,1-2.7,1.5-4.1c0.5-1.4,1-2.7,1.5-4.1s0.9-2.8,1.4-4.2
					c0.1-0.4,0.3-0.8,0.4-1.3c0.1-0.4,0.2-0.8,0.3-1.3c0.1-0.4,0.1-0.7,0-0.8c-0.2-0.2-0.3-0.3-0.4-0.5c-0.1-0.1-0.1-0.2-0.1-0.3
					c0-0.1,0-0.1-0.1-0.2c-0.2-0.3-0.4-0.5-0.7-0.7c-0.1-0.1-0.2-0.1-0.3-0.1c-0.2-0.1-0.5-0.1-0.8-0.1c-1,0.1-2,0.4-2.8,1
					c-0.7,0.4-1.4,1-2.1,1.5c0,0-0.1,0.1-0.1,0.1c-2.2,1.8-4.3,3.8-6.3,5.9c-2,2.1-3.9,4.2-5.8,6.4c-1.9,2.2-3.7,4.4-5.5,6.7
					c-1.8,2.3-3.5,4.5-5.2,6.8c-1.2,0.3-2.5,0.7-3.7,1.1s-2.4,0.9-3.6,1.3c-0.9,0.3-1.8,0.6-2.7,0.9c-0.9,0.3-1.8,0.6-2.7,1
					c-0.4,0.2-0.9,0.4-1.2,0.7c-0.3,0.2-0.5,0.5-0.7,0.7c-0.2,0.2-0.2,0.4-0.1,0.5c0.1,0.1,0.4,0.1,0.8,0c0.9-0.2,1.7-0.5,2.5-0.7
					c1-0.3,1.9-0.5,2.9-0.6c0.3,0,0.6-0.1,0.9-0.2c0.3-0.1,0.6-0.2,0.9-0.3c0.4-0.1,0.8-0.2,1.2-0.3c0.3,0,0.5-0.1,0.8-0.1
					s0.5-0.1,0.9-0.2c0.5-0.1,0.9-0.2,1.4-0.4c-1.4,2.1-2.9,4.2-4.3,6.3s-2.8,4.2-4.1,6.4c-0.3,0.5-0.7,1.1-1.1,1.6
					c-0.4,0.5-0.7,1-1.1,1.5c-0.1,0.1-0.3,0.2-0.4,0.3c-0.2,0.1-0.3,0.3-0.5,0.4c-0.1,0.1-0.2,0.3-0.3,0.5c-0.1,0.2-0.1,0.4,0,0.6
					c0.2,0.5,0.5,1,1,1.4c0.5,0.5,1.1,0.7,1.7,0.7c0.4,0,0.8-0.1,1.1-0.2c0.3-0.1,0.6-0.3,0.8-0.6c0.2-0.3,0.4-0.5,0.5-0.8
					c0.1-0.3,0.2-0.6,0.4-0.9c0.7-1.7,1.5-3.2,2.4-4.8c0.9-1.4,1.9-2.9,2.9-4.4c1-1.4,1.9-2.9,2.7-4.3c0.9-1.4,1.8-2.8,2.8-4.2
					c0.2-0.2,0.5-0.4,0.7-0.5c0.3-0.2,0.5-0.3,0.7-0.4c0.4-0.2,0.8-0.4,1.2-0.5c0.6-0.2,1-0.3,1.3-0.4c2.3-0.7,4.5-1.4,6.8-2.2
					c2.3-0.7,4.6-1.3,7-1.8c-0.4,1.4-0.7,2.7-1.1,4.1c-0.4,1.4-0.7,2.8-0.9,4.4c-0.2,0.9-0.4,1.8-0.6,2.7c-0.2,0.9-0.3,1.9-0.3,2.9
					c0.1,0,0.2,0.1,0.3,0.4c0.1,0.3,0.2,0.5,0.3,0.8c0.1,0.2,0.2,0.4,0.4,0.5c0.2,0.1,0.4-0.1,0.7-0.6c0.8-2.8,1.6-5.4,2.3-7.9
					s1.4-5.2,2.2-8c1.1-0.3,2-0.6,2.8-0.8l2.2-0.6c0.7-0.2,1.3-0.4,2-0.6s1.4-0.5,2.2-0.8C53.7,70.6,53.9,70.5,54.2,70.4 M43.2,66.5
					c-0.4,1.5-0.9,3-1.4,4.6c-2.4,0.5-4.9,1-7.5,1.6c-2.6,0.6-5,1.3-7.2,1.9c1.3-2.1,2.7-4.1,4.3-6c1.6-1.8,3.2-3.6,4.8-5.4
					c0.8-0.9,1.7-1.8,2.7-2.7c1-0.9,1.9-1.9,2.9-2.8c0.8-0.7,1.6-1.5,2.4-2.2c0.2-0.2,0.4-0.3,0.6-0.5c1-0.9,1.9-1.7,2.8-2.6
					c0-0.1,0.1-0.1,0.2-0.1h0.1c-0.3,1.1-0.6,2.2-1,3.3c-0.2,0.5-0.3,1-0.5,1.6c-0.5,1.7-1.1,3.2-1.6,4.7S43.7,65,43.2,66.5"/>
				<path id="Path_12_00000155854764900858015080000006210207044851136912_" class="st0" d="M66.2,69.6c0.2,0,0.3-0.1,0.4-0.3
					c0.1,0,0.2,0,0.2-0.1c0.1-0.1,0.2-0.1,0.2-0.2c0-0.1,0-0.2,0.1-0.3c-0.3-0.2-0.6-0.2-0.9-0.2c-0.4,0-0.7,0.1-0.9,0.1
					c-1.1,0.1-2.2,0.3-3.2,0.6c-1.3,0.4-2.5,1-3.5,1.8c0-0.2,0.1-0.5,0.2-0.7c0.1-0.3,0.1-0.5,0.2-0.8c0.5-0.4,0.5-1,0.1-1.5
					c0,0,0,0,0-0.1c-0.2-0.2-0.4-0.3-0.7-0.4c-0.1,0-0.2,0-0.2,0c-0.1,0-0.2,0-0.2,0c-0.1,0-0.2,0-0.3,0.1c-0.1,0-0.3,0-0.4,0.1
					c-0.1,0.1-0.3,0.1-0.4,0.2c-0.1,0.1-0.1,0.2-0.2,0.3c-0.1,0.1-0.1,0.2-0.2,0.3c-0.2,0.6-0.4,1.3-0.7,1.9c-0.3,0.7-0.5,1.3-0.6,2
					c0,0,0,0.1-0.1,0.1s-0.1,0-0.1,0.1c-0.2,0.5-0.4,1-0.6,1.5c-0.2,0.5-0.4,1-0.7,1.5c0,0.1,0,0.2-0.1,0.3V76
					c-0.1,0.5-0.3,1.1-0.5,1.6c-0.2,0.5-0.3,1-0.5,1.5c-0.1,0.5,0,1,0.4,1.3c0.4,0.3,0.9,0.3,1.3,0.1c0.1,0,0.3-0.1,0.5-0.3
					c0.2-0.2,0.3-0.4,0.4-0.6c0.2-0.2,0.3-0.3,0.3-0.6c0.1-0.3,0.2-0.7,0.3-1c0.1-0.4,0.2-0.8,0.3-1.2s0.2-0.8,0.3-1
					c0.2-0.4,0.5-0.7,0.8-1l0.9-0.9c0.4-0.4,0.8-0.8,1.3-1.1c0.6-0.4,1.3-0.8,1.9-1.1c0.7-0.4,1.4-0.7,2.2-1
					c0.8-0.3,1.5-0.6,2.2-0.8C65.8,69.7,66,69.6,66.2,69.6"/>
				<path id="Path_13_00000141428207079038929300000005181576424229840305_" class="st0" d="M70.8,67.2c0.1,0.1,0.2,0.1,0.3,0
					c0.1,0,0.1-0.1,0.2,0c0.1-0.2,0.3-0.3,0.5-0.3c0.2-0.1,0.4-0.2,0.4-0.4c0.1,0,0.1,0,0.1,0c0,0,0,0,0.1,0c0-0.1,0.1-0.2,0.2-0.3
					c0.1-0.1,0.2-0.2,0.1-0.3c0.1,0.1,0.2,0,0.2-0.1c0-0.1,0-0.2,0.1-0.1c0-0.1,0-0.1,0.1-0.1s0-0.1,0-0.1c0.3-0.2,0.5-0.5,0.5-0.8
					c0.1-0.4,0-0.7-0.2-1c0,0-0.1,0-0.1,0c-0.1,0-0.1-0.1-0.2-0.1c-0.2-0.2-0.4-0.3-0.7-0.2c-0.3,0.1-0.6,0.3-0.8,0.5
					c-0.3,0.2-0.5,0.5-0.7,0.8c-0.2,0.3-0.3,0.5-0.3,0.6c0,0.1-0.1,0.3-0.2,0.5c-0.1,0.2-0.1,0.4-0.1,0.6c0,0.2,0,0.4,0.1,0.5
					C70.5,67,70.6,67.1,70.8,67.2"/>
				<path id="Path_14_00000181779543247896650790000002380782150207521947_" class="st0" d="M142.8,74.7c-0.5,0.3-1,0.6-1.6,1
					c-0.6,0.4-1.2,0.7-1.8,0.9c-0.3,0.1-0.6,0.3-0.8,0.4c-0.3,0.2-0.6,0.3-0.8,0.4c-0.2,0.1-0.4,0.1-0.6,0.1
					c-0.2-0.1-0.3-0.3-0.3-0.8l0.3-1.1c0.1-0.1,0.1-0.3,0.2-0.5c0-0.1,0-0.2,0.1-0.4c0-0.2,0.1-0.4,0.3-0.5v-0.3
					c0.2-0.2,0.3-0.5,0.4-0.8c0.2-0.3,0.4-0.6,0.6-0.9c0.2-0.3,0.3-0.6,0.4-0.9c0-0.4-0.1-0.6-0.4-0.7s-0.4-0.2-0.6-0.3h-1
					c-0.1,0-0.2,0-0.4,0c-0.1,0.1-0.1,0.2-0.1,0.3c0,0.1,0,0.2-0.1,0.3c0,0.1-0.1,0.2-0.2,0.3c-0.1,0.1-0.1,0.2-0.2,0.3v0.1h-0.2
					c-0.2,0.3-0.5,0.6-0.8,0.8c-0.3,0.2-0.6,0.4-0.9,0.7c-1.1,0.9-2.2,1.7-3.3,2.4s-2.2,1.5-3.3,2.2c-0.2,0.2-0.5,0.4-0.8,0.5
					c0-0.3,0.2-0.6,0.4-0.8c0.2-0.2,0.3-0.5,0.4-0.8c0.1-0.2,0.3-0.3,0.4-0.5c0.1-0.2,0.3-0.3,0.5-0.4v-0.1c0.1-0.1,0.2-0.2,0.2-0.4
					c0.2-0.1,0.4-0.2,0.6-0.4c0.1-0.2,0.3-0.3,0.5-0.5c0.3-0.3,0.6-0.5,0.9-0.8c0.3-0.3,0.6-0.5,0.9-0.8c0.2-0.1,0.3-0.3,0.5-0.4
					c0.1-0.1,0.3-0.3,0.5-0.4c0.3-0.2,0.5-0.3,0.8-0.5c0.2-0.2,0.5-0.3,0.8-0.4c0-0.2,0.1-0.3,0.3-0.4c0.1,0,0.2-0.1,0.3-0.1
					l0.1-0.1l0.6-0.4c0.3-0.3,0.6-0.5,1-0.6c0.1-0.1,0.3-0.1,0.4-0.1c0.1,0,0.3,0,0.4-0.1c0.1-0.1,0.3-0.2,0.3-0.4
					c0.1-0.1,0.1-0.3-0.1-0.4c0-0.2-0.1-0.4-0.3-0.5c-0.2-0.1-0.3-0.3-0.5-0.5c-0.2,0-0.5,0-0.7-0.2c-0.1,0.1-0.1,0.1-0.2,0.1
					c-0.1,0-0.2,0-0.2,0c0,0-0.1,0-0.1,0c0,0,0,0-0.1,0c-0.4,0.1-0.8,0.3-1.1,0.6c-0.3,0.3-0.6,0.5-0.9,0.6
					c-0.4,0.2-0.8,0.4-1.1,0.7c-0.5,0.4-1.1,0.9-1.8,1.5s-1.3,1.1-1.8,1.7c-0.6,0.5-1,0.9-1.3,1.2c-0.3,0.4-0.6,0.9-1,1.3
					c-0.3,0.3-0.5,0.7-0.7,1c0,0-0.1,0-0.1,0c-0.3,0.1-0.5,0.3-0.7,0.4c-0.2,0.2-0.5,0.4-0.7,0.6c-0.4,0.2-0.6,0.3-0.7,0.4
					c0,0-0.1,0.1-0.2,0.1c0,0-0.1,0-0.2,0.1s-0.3,0.1-0.7,0.3c-0.3,0.2-0.6,0.3-0.9,0.4s-0.5,0.2-0.8,0.4c0-0.4,0-0.9,0.1-1.3
					c0.1-0.6,0.2-1.3,0.3-1.9c0.1-0.7,0.2-1.3,0.4-1.9s0.2-1.1,0.2-1.3c0.1-0.4,0.2-0.8,0.3-1.2c0.1-0.4,0.2-0.8,0.1-1.2
					c-0.1-0.4-0.3-0.7-0.6-0.8c-0.3-0.2-0.7-0.4-1.1-0.4c-0.5,0-1,0.2-1.4,0.5c-0.5,0.3-0.9,0.5-1.3,0.8c-1,0.6-2,1.3-2.9,2.2
					c-0.8,0.8-1.7,1.6-2.6,2.4c-0.2,0.1-0.4,0.3-0.6,0.5c-0.2,0.2-0.4,0.3-0.6,0.3c0.2-0.6,0.4-1.1,0.6-1.6s0.4-1,0.6-1.4
					c0.1-0.2,0.1-0.4,0.1-0.6c0-0.2,0-0.4,0.1-0.6c0.2-0.3,0.3-0.6,0.5-0.9c0.2-0.3,0.2-0.7,0-1.1c-0.1-0.4-0.4-0.7-0.8-0.7
					c-0.4-0.1-0.9-0.1-1.3,0.2c-0.1,0.1-0.2,0.2-0.3,0.3c-0.1,0.1-0.1,0.2-0.2,0.3c0,0.1,0,0.1,0,0.2c-0.4-0.1-0.9-0.2-1.3-0.2
					c-0.9,0-1.8,0-2.7,0.1c-1,0.1-1.9,0.2-2.7,0.3s-1.5,0.3-1.9,0.4l-0.5-0.7c-0.1-0.1-0.2-0.2-0.4-0.2c-0.2-0.1-0.4-0.1-0.6-0.2
					c-0.2-0.1-0.4-0.1-0.6-0.2c-0.1,0-0.3,0-0.4,0c-0.1,0-0.1,0-0.2,0.1c-0.1,0.1-0.1,0.1-0.1,0c-0.3-0.1-0.6-0.2-0.9-0.3
					c-0.2-0.2-0.6-0.3-0.9-0.3c-0.3,0.1-0.6,0.2-0.9,0.5c-0.3,0.2-0.6,0.5-0.8,0.8c-0.3,0.3-0.5,0.6-0.7,0.9
					c-0.4,0.4-0.7,0.9-1.1,1.3c-0.3,0.4-0.6,0.9-0.8,1.4c-0.1,0-0.1,0-0.1,0.1c0,0.1-0.1,0.2-0.2,0.2L92,75.8c0,0.2-0.1,0.5-0.2,0.7
					c-0.1,0.2-0.1,0.4-0.1,0.6c-0.2,0-0.4,0.1-0.6,0.2l-1,0.2c-0.3,0.1-0.5,0.1-0.7,0.2s-0.3,0.1-0.4,0.1c0,0-0.2,0-0.7,0
					s-1.1,0.1-2,0.3s-1.9,0.3-3,0.5s-2.4,0.5-3.7,0.8c0.1-0.3,0.2-0.4,0.4-0.4c0.2-0.4,0.5-0.8,0.9-1.1c0.7-0.5,1.3-1,1.9-1.6
					c0.6-0.6,1.3-1.2,2-1.7c0.7-0.5,1.3-1,1.9-1.4c0.2-0.1,0.4-0.2,0.6-0.4c0.2-0.2,0.3-0.4,0.4-0.7c0.3,0,0.4-0.1,0.4-0.2
					c0.4-0.2,0.6-0.5,0.8-0.9c0.4-0.2,0.8-0.6,0.9-1.1c0.2-0.5,0.1-1-0.2-1.4c-0.2-0.2-0.7-0.3-1.4-0.3c-0.8,0.1-1.5,0.2-2.3,0.3
					c-0.8,0.2-1.6,0.3-2.4,0.5c-0.5,0.1-1.1,0.2-1.7,0.3c-0.4,0.1-0.8,0.2-1.3,0.3c-0.5,0.1-0.9,0.3-1.4,0.5c-0.4,0.2-0.7,0.5-1,0.9
					c-0.2,0.4-0.3,0.9-0.2,1.4c0,0.3,0.2,0.5,0.4,0.6c0.2,0.1,0.5,0.2,0.7,0.2c0,0,0.1,0,0.1,0c0,0,0,0,0,0c-0.3,0.1-0.7,0.2-1,0.4
					l-0.8,0.5c-0.2,0.1-0.5,0.3-0.7,0.4c-0.3,0.1-0.6,0.2-0.8,0.3c-0.9,0.3-1.7,0.7-2.6,1.1c-0.9,0.4-1.6,0.8-2.3,1.1
					s-1.3,0.6-1.8,0.8c-0.5,0.2-0.8,0.2-0.9,0.1s-0.1-0.3,0-0.7c0.1-0.4,0.3-0.8,0.5-1.2c0.2-0.5,0.5-0.9,0.8-1.5
					c0.3-0.5,0.5-1,0.8-1.5c0.1,0,0.1-0.1,0.1-0.2c0-0.1,0-0.1,0.1-0.2c0,0,0.1,0,0.1,0s0,0,0.1,0c0.1-0.1,0.1-0.3,0.2-0.4
					c0-0.1,0.1-0.2,0.2-0.3c0.2-0.2,0.2-0.5,0.2-0.8c0.1-0.1,0.1-0.3,0.1-0.5c0-0.1,0-0.3-0.1-0.6c0-0.2-0.1-0.3-0.2-0.4
					c-0.1-0.1-0.2-0.2-0.3-0.4c-0.1,0.1-0.3,0.1-0.4,0c-0.1-0.1-0.3-0.1-0.4,0c-0.3,0-0.5,0.2-0.8,0.3c-0.5,0.7-0.9,1.5-1.3,2.2
					c-0.4,0.8-0.8,1.6-1.2,2.4c-0.1,0.3-0.2,0.6-0.4,0.9s-0.3,0.6-0.4,0.9c-0.1,0.3-0.2,0.5-0.3,0.8c-0.1,0.2-0.2,0.5-0.3,0.8
					c-0.2,0.5-0.3,1-0.4,1.4c-0.1,0.4-0.1,0.8,0,1.2c0.2,0.4,0.6,0.6,1,0.7c0.5,0.1,0.9,0.2,1.4,0.2c0.1,0,0.1,0,0.2,0
					c0,0,0.1,0,0.2-0.1c0.2,0.1,0.7,0,1.3-0.4s1.4-0.8,2.1-1.4s1.5-1,2.2-1.5c0.5-0.4,1-0.7,1.6-0.9c0.4-0.2,0.8-0.4,1.3-0.7
					c0.4-0.2,0.8-0.5,1.1-0.8c0.4-0.2,0.7-0.4,1-0.6c0.3-0.2,0.6-0.5,0.9-0.7l0.4-0.3c0.1-0.2,0.2-0.4,0.3-0.6c0,0-0.1,0-0.1,0
					c0,0,0,0,0,0c0.1,0,0.1,0,0.2-0.1c0.2-0.1,0.4-0.2,0.5-0.4l0.2-0.1c0.3-0.2,0.6-0.5,1-0.6c0.4-0.2,0.9-0.4,1.3-0.6
					c0.5-0.2,0.9-0.4,1.4-0.5c0.4-0.1,0.8-0.2,1.3-0.2c0.2,0,0.3,0,0.3,0.1c0,0.1-0.1,0.2-0.2,0.3c-0.1,0.1-0.3,0.3-0.5,0.5
					c-0.2,0.2-0.4,0.4-0.6,0.6c-0.1,0.2-0.2,0.3-0.4,0.4c-0.1,0.1-0.2,0.1-0.3,0.1c-0.1,0-0.2,0.1-0.3,0.1c-0.1,0.1-0.2,0.3-0.3,0.4
					c-0.1,0.1-0.1,0.1-0.2,0.2c-0.1,0.1-0.2,0.1-0.2,0.2c-0.1,0.1-0.2,0.1-0.3,0.2c-0.2,0.2-0.4,0.3-0.6,0.5
					c-0.2,0.2-0.4,0.4-0.6,0.5c-0.1,0.1-0.2,0.2-0.3,0.3c-0.4,0.4-0.9,0.8-1.4,1.1c-0.6,0.4-1.1,0.9-1.6,1.4c-0.5,0.5-0.9,1-1.1,1.7
					c-0.3,0.6-0.3,1.3-0.1,1.9c0.1,0.1,0.1,0.2,0.1,0.3s0.1,0.1,0.3,0.2c0.2,0.1,0.3,0.2,0.5,0.3c0.1,0.1,0.3,0.1,0.4,0.1
					c0.2,0.1,0.4,0.1,0.6,0c0.2-0.1,0.4-0.1,0.6,0c0.2-0.1,0.4-0.1,0.6-0.2c0.2,0,0.3-0.1,0.5-0.2c0.1,0.1,0.3,0.1,0.4,0.1
					c0.1,0,0.2-0.1,0.4-0.1c0.4,0.1,0.9,0,1.3-0.1c0.5-0.1,1.1-0.3,1.7-0.5s1.2-0.4,1.7-0.6c0.4-0.2,0.9-0.3,1.3-0.4
					c-0.1,0,0,0,0.3-0.1s0.7-0.1,1.2-0.2s0.9-0.2,1.3-0.3c0.3-0.1,0.5-0.1,0.7-0.2c0.4-0.1,0.8-0.2,1.2-0.4c0.1,0.2,0.2,0.4,0.3,0.6
					c0.3,0.4,0.6,0.7,1,0.9c0.4,0.2,0.9,0.4,1.4,0.4c0.5,0,1.1,0,1.6-0.2c0.5,0,1-0.1,1.4-0.4c0.5-0.3,1-0.7,1.5-1
					c0.6-0.5,1.2-1.1,1.7-1.7c0.3-0.2,0.6-0.6,0.7-0.9c0.2-0.4,0.4-0.8,0.7-1c0.1-0.2,0.3-0.5,0.4-0.7c0.1-0.3,0.2-0.5,0.3-0.7
					c0.2-0.2,0.3-0.4,0.3-0.7c0.1-0.3,0.1-0.5,0.1-0.8v-0.2c0-0.1,0-0.2,0.1-0.3c0.3-0.1,0.8-0.2,1.3-0.3c0.5-0.1,1-0.2,1.6-0.4
					c0.5-0.1,1.1-0.2,1.6-0.3c0.5-0.1,1-0.1,1.5-0.1c0.4,0,0.7,0,0.9,0c-0.1,0.1-0.2,0.3-0.3,0.5c-0.5,1.2-1,2.4-1.5,3.6
					c-0.6,1.2-1,2.5-1.3,3.9c-0.1,0.3-0.2,0.5-0.3,0.8c-0.1,0.2-0.1,0.4-0.1,0.6c0.1,0.3,0.3,0.6,0.6,0.7c0.3,0.2,0.6,0.3,0.9,0.2
					c0.6-0.3,1.2-0.8,1.6-1.3c0.7-0.8,1.7-1.8,2.8-3.1c0.4-0.4,0.8-0.7,1.2-1c0.4-0.3,0.8-0.6,1.1-0.9c0.6-0.6,1.2-1.1,1.7-1.6
					c0.6-0.5,1.2-1,1.8-1.4l0.6-0.5c0.2-0.2,0.5-0.3,0.7-0.4c-0.1,0.4-0.2,0.8-0.3,1.1c-0.1,0.4-0.2,0.8-0.2,1.3
					c0,0.2-0.1,0.6-0.2,1.1s-0.2,1.1-0.4,1.7s-0.2,1.2-0.3,1.7c-0.1,0.3-0.1,0.7-0.2,1c0,0.5,0.2,0.9,0.4,1.3c0.3,0.5,0.6,0.7,1,0.6
					c0.3,0,0.5,0,0.8-0.1c0.3,0,0.6-0.1,0.9-0.2c0.5-0.2,0.9-0.4,1.3-0.7c0.4-0.3,0.8-0.6,1.3-0.8c0.2-0.2,0.4-0.3,0.6-0.4
					c-0.1,0.4,0,0.8,0.4,1c0.2,0.2,0.4,0.3,0.7,0.3c0.3,0,0.5,0,0.8,0.1c0.1,0.1,0.3,0.1,0.4,0.1h0.4c0.3,0,0.5,0,0.7-0.1
					c0.3-0.1,0.5-0.3,0.7-0.4c0.9-0.4,1.7-0.8,2.5-1.4c0.1-0.1,0.2-0.2,0.3-0.2c0.1-0.1,0.2-0.1,0.3-0.1c0,0,0,0,0-0.1
					c0-0.1,0-0.1,0-0.1c0.1-0.1,0.2-0.1,0.3-0.2c0.1-0.1,0.2-0.2,0.3-0.3c0.2-0.1,0.4-0.2,0.6-0.4c0.2-0.2,0.3-0.4,0.5-0.6
					c0.1-0.1,0.2-0.1,0.3-0.2c0.1,0,0.1-0.1,0.2-0.1c0,0,0.1,0,0.1-0.1c0-0.1,0.1-0.1,0.1,0c-0.1,0.4-0.1,0.8-0.1,1.2
					c0,0.3,0.1,0.7,0.1,1c0.1,0.2,0.2,0.4,0.3,0.6c0.2,0.2,0.4,0.4,0.6,0.5c0.1,0,0.2,0.1,0.3,0.1c0.1,0,0.1,0.1,0.2,0.1
					c0.6,0.2,1.3,0.2,1.9,0c0.5-0.2,1-0.4,1.5-0.7c0.5-0.3,0.9-0.7,1.4-1c0.4-0.4,0.9-0.7,1.5-0.9c0.1,0,0.2,0,0.4-0.1
					c0.4-0.3,0.7-0.5,1.1-0.8c0.1-0.3,0.2-0.4,0.4-0.5c0.1,0,0.3-0.1,0.4-0.2c0.4-0.3,0.5-0.5,0.3-0.7S143.8,74.3,142.8,74.7
					 M100.2,72.8c-0.3,0.7-0.6,1.4-0.9,2c-0.4,0.6-0.6,1.1-0.8,1.3l-0.3,0.4c-0.5,0.5-1,0.9-1.5,1.3c-0.6,0.4-1.3,0.8-2,1
					c-0.2-0.5-0.3-1-0.1-1.5c0.2-0.5,0.3-1,0.4-1.4c0.1-0.4,0.2-0.7,0.4-1c0.2-0.4,0.5-0.9,0.7-1.3s0.5-0.9,0.8-1.3
					c0.3-0.4,0.5-0.7,0.7-0.9c0.2-0.3,0.3-0.5,0.4-0.8c0.1-0.2,0.3-0.4,0.5-0.6l0.2-0.2c0.1,0.1,0.3,0.2,0.5,0.2
					c0.2,0,0.3,0,0.5,0.1c0.6,0,0.9,0.3,0.9,0.8C100.6,71.5,100.4,72.2,100.2,72.8"/>
				<path id="Path_15_00000147935508411819137470000000493839542388519868_" class="st1" d="M203.1,60.1l28.3-3.7l2.4-8.6
					l-32.5,11.8L203.1,60.1z"/>
				<path id="Path_16_00000073709468762251601620000014376683531965708425_" class="st1" d="M173,44.9l0.1,6.8l19.1,5.3L173,44.9z"
					/>
				<path id="Path_17_00000082355982728865480850000008341973904574506379_" class="st1" d="M198.2,58.7l1.5-34.3l-8.3-2.3l6.4,36.5
					L198.2,58.7z"/>
				<path id="Path_18_00000176747148126325701530000018278320479174305178_" class="st1" d="M199.6,59.1l25.8-27.5l-9-2.5L199.1,59
					L199.6,59.1z"/>
				<path id="Path_19_00000062178362264751034960000004318602592707175068_" class="st1" d="M200.7,59.4l34.9-18.1l1.8-6.4l-5.9-1.6
					l-31.5,25.9L200.7,59.4z"/>
				<path id="Path_20_00000000220289804787059620000018388055489898371712_" class="st1" d="M198.8,58.9l13-31.1l-7.3-2l-6.1,33
					L198.8,58.9z"/>
				<path id="Path_21_00000151540895939491725020000006687383972572256930_" class="st1" d="M197.4,58.5l-11.7-37.9l-2.1-0.6
					l-2.6,9.1l-1-0.3l16.8,29.6L197.4,58.5z"/>
				<path id="Path_22_00000058579227598913051650000017017418337230612122_" class="st1" d="M205.6,60.8l22.7,6.3l1.8-6.2
					L205.6,60.8z"/>
				<path id="Path_23_00000183971269019361640140000009005112622555647891_" class="st1" d="M194.4,57.7l1.6,0.5l-23.3-30.3
					l0.2,11.8L194.4,57.7z"/>
				<path id="Path_24_00000087389518221757555970000016275618639904071310_" class="st0" d="M181.9,14l-2.6,9.1l-3.2-0.9l0-0.1l0,0
					l-7.7-2.2l0.4,33.4l24,7c0.9,0.6,1.5,1.7,1.4,2.8c0,2.3-1.5,3.5-3.2,4.6c-2,1.1-2.8,3.7-1.7,5.7c0.1,0.3,0.3,0.5,0.5,0.8
					c2.1,2.6,7.2,4.1,10.3,3c2.2-0.7,3.5-3,2.9-5.2c-0.1-0.2-0.2-0.5-0.3-0.7c-0.3-0.6-0.6-1.3-0.8-2c-0.5-1.6-0.1-3.4,1.1-4.5
					c0.5-0.6,1.3-0.9,2.1-0.9l27.2,7.9l11.5-39.8L181.9,14z M173.1,51.8l-0.1-6.8l19.2,12.2L173.1,51.8z M228.3,67.1l-22.7-6.3
					l24.5,0.1L228.3,67.1z M201.3,59.6l32.5-11.8l-2.4,8.6l-28.3,3.7l-5,0.7l-3.7-3.1l-21.5-18l-0.2-11.8l23.3,30.3l2,2.6l-1.4-2.4
					l-15.9-29.6l0.2,0.3l2.6-9.1l2.1,0.6l11.7,37.9l0.7,2.3l-0.4-2.2l-6.4-36.5l8.3,2.3l-1.5,34.3l-0.1,2l0.4-2l6.1-33l7.3,2
					l-13,31.1l-0.8,1.8l1-1.8l17.4-29.9l9,2.5l-25.9,27.5l-1.5,1.6l1.9-1.5l31.5-25.9l5.9,1.6l-1.8,6.4l-34.9,18.1l-2.6,1.3
					L201.3,59.6z"/>
			</g>
		</g>
	</g>
</g>
</svg>
