<?xml version="1.0" encoding="utf-8"?>
<!-- Generator: Adobe Illustrator 26.2.1, SVG Export Plug-In . SVG Version: 6.00 Build 0)  -->
<svg version="1.1" id="Layer_1" xmlns="http://www.w3.org/2000/svg" xmlns:xlink="http://www.w3.org/1999/xlink" x="0px" y="0px"
	 viewBox="0 0 264 131" style="enable-background:new 0 0 264 131;" xml:space="preserve">
<style type="text/css">
	.st0{fill:#0B3758;}
	.st1{fill:#FFFFFF;}
	.st2{clip-path:url(#SVGID_00000044876810911021992930000017027559411552956568_);}
	.st3{fill:#5A626C;}
</style>
<g id="Group_3" transform="translate(0 0)">
	<path id="Path_1" class="st0" d="M151,81.4l44,32.7l31.7,9.2L239.5,79l-2.6-0.8l-12.1,41.7l-28.6-8.3l-41.7-31L167.3,58l-0.5-0.1
		l-0.1-4.5L151,81.4z"/>
	<path id="Path_2" class="st0" d="M181.7,7.7l-2.6,9.1L166.2,13l0.5,40.4l0.1,4.5l0.5,0.1l2.2-4L169,16.7l11.9,3.5l2.6-9.1
		l67.2,19.5l-13.1,45l0,0l-0.8,2.6l2.6,0.8l0,0l14.6-50.3L181.7,7.7z"/>
	<path id="Path_3" class="st1" d="M196.2,111.6l28.6,8.3l12.1-41.7l0.8-2.6l-2.6-0.8l-12.1,41.7l-25.5-7.4l-39.3-29.2l13.3-23.6
		l-1.8-0.5l0-1.8l-2.2,4l-12.8,22.7L196.2,111.6z"/>
	<g id="Group_2" transform="translate(0 0)">
		<g>
			<defs>
				<rect id="SVGID_1_" x="9.9" y="7.7" width="244.2" height="115.7"/>
			</defs>
			<clipPath id="SVGID_00000065057446855669304610000015545276444248153000_">
				<use xlink:href="#SVGID_1_"  style="overflow:visible;"/>
			</clipPath>
			<g id="Group_1" style="clip-path:url(#SVGID_00000065057446855669304610000015545276444248153000_);">
				<path id="Path_4" class="st1" d="M171.4,56.4l0.2-0.4l23.6,6.8c0.1,0.3,0.2,0.5,0.2,0.8c0,0.9-0.3,1.5-2.2,2.7
					c-1.7,1-2.8,2.6-3.1,4.5c-0.3,1.9,0.2,3.8,1.4,5.2c1.6,1.8,3.6,3,5.9,3.6c2.2,0.7,4.6,0.8,6.9,0.1c3.4-1.1,5.3-4.7,4.3-8.1
					c-0.1-0.3-0.2-0.6-0.3-0.9c-0.1-0.2-0.2-0.4-0.3-0.6c-0.2-0.3-0.3-0.7-0.4-1.1c-0.3-0.8-0.1-1.8,0.5-2.4
					c0.1-0.1,0.2-0.2,0.3-0.2l26.8,7.8l-0.1,0.5l2.6,0.8l0,0l13.1-45l-67.2-19.5l-2.6,9.1L169,16.7l0.5,37.4l0,1.8L171.4,56.4z
					 M171.8,20.3l7.7,2.2l0,0l0,0.1l3.2,0.9l2.6-9.1l61.9,18l-11.5,39.8l-27.2-7.9c-0.8,0-1.5,0.3-2.1,0.9c-1.2,1.2-1.7,2.9-1.1,4.5
					c0.2,0.7,0.5,1.4,0.8,2c1,2.1,0.2,4.6-1.9,5.7c-0.2,0.1-0.5,0.2-0.7,0.3c-3.1,1.1-8.2-0.4-10.3-3c-1.5-1.7-1.4-4.4,0.4-5.9
					c0.2-0.2,0.5-0.4,0.8-0.5c1.7-1.1,3.2-2.3,3.2-4.6c0.1-1.1-0.4-2.2-1.4-2.8l-24-7L171.8,20.3z"/>
				<path id="Path_5" class="st3" d="M208.3,66.6c-0.1,0-0.2,0.1-0.3,0.2c-0.6,0.6-0.9,1.5-0.5,2.4c0.1,0.4,0.3,0.7,0.4,1.1
					c0.1,0.2,0.2,0.4,0.3,0.6c1.5,3.2,0.2,7.1-3.1,8.6c-0.3,0.1-0.6,0.3-0.9,0.3c-2.3,0.7-4.7,0.6-6.9-0.1c-2.3-0.6-4.3-1.9-5.9-3.6
					c-1.2-1.5-1.7-3.4-1.4-5.2c0.3-1.9,1.5-3.5,3.1-4.5c1.8-1.2,2.2-1.8,2.2-2.7c0-0.3,0-0.6-0.2-0.8l-23.6-6.8l-0.3,0.4l-13.3,23.6
					l39.3,29.2l25.5,7.4L235,74.8l0.1-0.5L208.3,66.6z"/>
				<path id="Path_6" class="st3" d="M26.7,56.7c5.6,0,8.5-3.3,8.5-9.1C35.2,37.2,24,35.8,24,28.4c0-2.6,1-3.6,2.8-3.6
					s2.8,1,2.8,3.6v1.5h5.4v-1.1c0-5.8-2.8-9.1-8.4-9.1s-8.4,3.3-8.4,9.1c0,10.3,11.1,11.7,11.1,19.2c0,2.6-1.1,3.5-2.9,3.5
					s-2.9-0.9-2.9-3.5v-2.6h-5.4v2.2C18.2,53.4,21.1,56.7,26.7,56.7"/>
				<path id="Path_7" class="st3" d="M83.8,49.7h7l1,6.6h5.7l-5.8-36.2h-8.3l-5.8,36.2h5.2L83.8,49.7z M87.3,26.5L90,44.8h-5.5
					L87.3,26.5z"/>
				<path id="Path_8" class="st3" d="M115.1,41.5h2c2.6,0,3.7,1.2,3.7,4.6v5.7c0,2.9,0.2,3.5,0.5,4.4h5.8c-0.5-1.4-0.7-2.9-0.6-4.4
					v-5.6c0-3.8-0.9-6.5-3.8-7.7c2.5-1.2,3.7-3.6,3.7-7.3v-2.8c0-5.6-2.5-8.3-8.4-8.3h-8.6v36.2h5.7L115.1,41.5z M115.1,25.2h2.7
					c2,0,2.9,1.1,2.9,3.7v3.6c0,2.9-1.3,3.8-3.4,3.8h-2.2L115.1,25.2z"/>
				<path id="Path_9" class="st3" d="M155,51.1h-9.8V40.5h7.8v-5.2h-7.8V25.2h9.8v-5.2h-15.5v36.2H155V51.1z"/>
				<path id="Path_10" class="st3" d="M52.6,49.2c0.3,0,0.5,0,0.8,0.1v-8.5h6.5v15.5h5.8V20.1h-5.8v15.5h-6.5V20.1h-5.7v31.6
					c0.7-0.6,1.4-1.1,2.1-1.5C50.7,49.6,51.6,49.3,52.6,49.2"/>
				<path id="Path_11" class="st0" d="M57.7,70.9c0.2-0.1,0.4-0.3,0.5-0.5c0-0.2-0.1-0.4-0.4-0.4c-0.4,0-0.8,0-1.2,0.1
					c-1.5,0.1-2.5,0.2-3.1,0.2c-0.6,0-1,0-1.4,0.1c-0.4,0-0.7,0.1-1.1,0.1c-0.4,0.1-1.2,0.2-2.4,0.4c0.4-1.4,0.9-2.8,1.4-4.1
					c0.5-1.3,1-2.7,1.5-4.1c0.5-1.4,1-2.7,1.5-4.1s0.9-2.8,1.4-4.2c0.1-0.4,0.3-0.8,0.4-1.3c0.1-0.4,0.2-0.8,0.3-1.3
					c0.1-0.4,0.1-0.7,0-0.8c-0.2-0.2-0.3-0.3-0.4-0.5c-0.1-0.1-0.1-0.2-0.1-0.3c0-0.1,0-0.1-0.1-0.2c-0.2-0.3-0.4-0.5-0.7-0.7
					c-0.1-0.1-0.2-0.1-0.3-0.1c-0.2-0.1-0.5-0.1-0.8-0.1c-1,0.1-2,0.4-2.8,1c-0.7,0.4-1.4,1-2.1,1.5c0,0-0.1,0.1-0.1,0.1
					c-2.2,1.8-4.3,3.8-6.3,5.9c-2,2.1-3.9,4.2-5.8,6.4c-1.9,2.2-3.7,4.4-5.5,6.7c-1.8,2.3-3.5,4.5-5.2,6.8c-1.2,0.3-2.5,0.7-3.7,1.1
					c-1.2,0.4-2.4,0.9-3.6,1.3c-0.9,0.3-1.8,0.6-2.7,0.9c-0.9,0.3-1.8,0.6-2.7,1c-0.4,0.2-0.9,0.4-1.2,0.7c-0.3,0.2-0.5,0.5-0.7,0.7
					c-0.2,0.2-0.2,0.4-0.1,0.5c0.1,0.1,0.4,0.1,0.8,0c0.9-0.2,1.7-0.5,2.5-0.7c1-0.3,1.9-0.5,2.9-0.6c0.3,0,0.6-0.1,0.9-0.2
					c0.3-0.1,0.6-0.2,0.9-0.3c0.4-0.1,0.8-0.2,1.2-0.3c0.3,0,0.5-0.1,0.8-0.1s0.5-0.1,0.9-0.2c0.5-0.1,0.9-0.2,1.4-0.4
					c-1.4,2.1-2.9,4.2-4.3,6.3s-2.8,4.2-4.1,6.4c-0.3,0.5-0.7,1.1-1.1,1.6c-0.4,0.5-0.7,1-1.1,1.5c-0.1,0.1-0.3,0.2-0.4,0.3
					c-0.2,0.1-0.3,0.3-0.5,0.4c-0.1,0.1-0.2,0.3-0.3,0.5c-0.1,0.2-0.1,0.4,0,0.6c0.2,0.5,0.5,1,1,1.4c0.5,0.5,1.1,0.7,1.7,0.7
					c0.4,0,0.8-0.1,1.1-0.2c0.3-0.1,0.6-0.3,0.8-0.6c0.2-0.3,0.4-0.5,0.5-0.8c0.1-0.3,0.2-0.6,0.4-0.9c0.7-1.7,1.5-3.2,2.4-4.8
					c0.9-1.4,1.9-2.9,2.9-4.4c1-1.4,1.9-2.9,2.7-4.3c0.9-1.4,1.8-2.8,2.8-4.2c0.2-0.2,0.5-0.4,0.7-0.5c0.3-0.2,0.5-0.3,0.7-0.4
					c0.4-0.2,0.8-0.4,1.2-0.5c0.6-0.2,1-0.3,1.3-0.4c2.3-0.7,4.5-1.4,6.8-2.2c2.3-0.7,4.6-1.3,7-1.8c-0.4,1.4-0.7,2.7-1.1,4.1
					c-0.4,1.4-0.7,2.8-0.9,4.4c-0.2,0.9-0.4,1.8-0.6,2.7c-0.2,0.9-0.3,1.9-0.3,2.9c0.1,0,0.2,0.1,0.3,0.4c0.1,0.3,0.2,0.5,0.3,0.8
					c0.1,0.2,0.2,0.4,0.4,0.5c0.2,0.1,0.4-0.1,0.7-0.6c0.8-2.8,1.6-5.4,2.3-7.9s1.4-5.2,2.2-8c1.1-0.3,2-0.6,2.8-0.8l2.2-0.6
					c0.7-0.2,1.3-0.4,2-0.6s1.4-0.5,2.2-0.8C57.2,71.1,57.4,71,57.7,70.9 M46.7,67c-0.4,1.5-0.9,3-1.4,4.6c-2.4,0.5-4.9,1-7.5,1.6
					c-2.6,0.6-5,1.3-7.2,1.9c1.3-2.1,2.7-4.1,4.3-6c1.6-1.8,3.2-3.6,4.8-5.4c0.8-0.9,1.7-1.8,2.7-2.7c1-0.9,1.9-1.9,2.9-2.8
					c0.8-0.7,1.6-1.5,2.4-2.2c0.2-0.2,0.4-0.3,0.6-0.5c1-0.9,1.9-1.7,2.8-2.6c0-0.1,0.1-0.1,0.2-0.1h0.1c-0.3,1.1-0.6,2.2-1,3.3
					c-0.2,0.5-0.3,1-0.5,1.6c-0.5,1.7-1.1,3.2-1.6,4.7C47.7,64,47.2,65.5,46.7,67"/>
				<path id="Path_12" class="st0" d="M69.7,70.1c0.2,0,0.3-0.1,0.4-0.3c0.1,0,0.2,0,0.2-0.1c0.1-0.1,0.2-0.1,0.2-0.2
					c0-0.1,0-0.2,0.1-0.3C70.2,69,69.9,69,69.6,69c-0.4,0-0.7,0.1-0.9,0.1c-1.1,0.1-2.2,0.3-3.2,0.6c-1.3,0.4-2.5,1-3.5,1.8
					c0-0.2,0.1-0.5,0.2-0.7c0.1-0.3,0.1-0.5,0.2-0.8c0.5-0.4,0.5-1,0.1-1.5c0,0,0,0,0-0.1c-0.2-0.2-0.4-0.3-0.7-0.4
					c-0.1,0-0.2,0-0.2,0c-0.1,0-0.2,0-0.2,0c-0.1,0-0.2,0-0.3,0.1c-0.1,0-0.3,0-0.4,0.1c-0.1,0.1-0.3,0.1-0.4,0.2
					c-0.1,0.1-0.1,0.2-0.2,0.3c-0.1,0.1-0.1,0.2-0.2,0.3c-0.2,0.6-0.4,1.3-0.7,1.9c-0.3,0.7-0.5,1.3-0.6,2c0,0,0,0.1-0.1,0.1
					s-0.1,0-0.1,0.1c-0.2,0.5-0.4,1-0.6,1.5c-0.2,0.5-0.4,1-0.7,1.5c0,0.1,0,0.2-0.1,0.3v0.1c-0.1,0.5-0.3,1.1-0.5,1.6
					c-0.2,0.5-0.3,1-0.5,1.5c-0.1,0.5,0,1,0.4,1.3c0.4,0.3,0.9,0.3,1.3,0.1c0.1,0,0.3-0.1,0.5-0.3c0.2-0.2,0.3-0.4,0.4-0.6
					c0.2-0.2,0.3-0.3,0.3-0.6c0.1-0.3,0.2-0.7,0.3-1c0.1-0.4,0.2-0.8,0.3-1.2s0.2-0.8,0.3-1c0.2-0.4,0.5-0.7,0.8-1l0.9-0.9
					c0.4-0.4,0.8-0.8,1.3-1.1c0.6-0.4,1.3-0.8,1.9-1.1c0.7-0.4,1.4-0.7,2.2-1c0.8-0.3,1.5-0.6,2.2-0.8
					C69.4,70.2,69.5,70.1,69.7,70.1"/>
				<path id="Path_13" class="st0" d="M74.3,67.7c0.1,0.1,0.2,0.1,0.3,0c0.1,0,0.1-0.1,0.2,0c0.1-0.2,0.3-0.3,0.5-0.3
					c0.2-0.1,0.4-0.2,0.4-0.4c0.1,0,0.1,0,0.1,0c0,0,0,0,0.1,0c0-0.1,0.1-0.2,0.2-0.3c0.1-0.1,0.2-0.2,0.1-0.3
					c0.1,0.1,0.2,0,0.2-0.1c0-0.1,0-0.2,0.1-0.1c0-0.1,0-0.1,0.1-0.1s0-0.1,0-0.1c0.3-0.2,0.5-0.5,0.5-0.8c0.1-0.4,0-0.7-0.2-1
					c0,0-0.1,0-0.1,0c-0.1,0-0.1-0.1-0.2-0.1c-0.2-0.2-0.4-0.3-0.7-0.2c-0.3,0.1-0.6,0.3-0.8,0.5c-0.3,0.2-0.5,0.5-0.7,0.8
					c-0.2,0.3-0.3,0.5-0.3,0.6c0,0.1-0.1,0.3-0.2,0.5c-0.1,0.2-0.1,0.4-0.1,0.6c0,0.2,0,0.4,0.1,0.5C74,67.5,74.1,67.6,74.3,67.7"/>
				<path id="Path_14" class="st0" d="M146.3,75.2c-0.5,0.3-1,0.6-1.6,1c-0.6,0.4-1.2,0.7-1.8,0.9c-0.3,0.1-0.6,0.3-0.8,0.4
					c-0.3,0.2-0.6,0.3-0.8,0.4c-0.2,0.1-0.4,0.1-0.6,0.1c-0.2-0.1-0.3-0.3-0.3-0.8l0.3-1.1c0.1-0.1,0.1-0.3,0.2-0.5
					c0-0.1,0-0.2,0.1-0.4c0-0.2,0.1-0.4,0.3-0.5v-0.3c0.2-0.2,0.3-0.5,0.4-0.8c0.2-0.3,0.4-0.6,0.6-0.9c0.2-0.3,0.3-0.6,0.4-0.9
					c0-0.4-0.1-0.6-0.4-0.7s-0.4-0.2-0.6-0.3h-1c-0.1,0-0.2,0-0.4,0.1c-0.1,0.1-0.1,0.2-0.1,0.3c0,0.1,0,0.2-0.1,0.3
					c0,0.1-0.1,0.2-0.2,0.3c-0.1,0.1-0.1,0.2-0.2,0.3v0.1h-0.2c-0.2,0.3-0.5,0.6-0.8,0.8c-0.3,0.2-0.6,0.4-0.9,0.7
					c-1.1,0.9-2.2,1.7-3.3,2.4s-2.2,1.5-3.3,2.2c-0.2,0.2-0.5,0.4-0.8,0.5c0-0.3,0.2-0.6,0.4-0.8c0.2-0.2,0.3-0.5,0.4-0.8
					c0.1-0.2,0.3-0.3,0.4-0.5c0.1-0.2,0.3-0.3,0.5-0.4v-0.1c0.1-0.1,0.2-0.2,0.2-0.4c0.2-0.1,0.4-0.2,0.6-0.4
					c0.1-0.2,0.3-0.3,0.5-0.5c0.3-0.3,0.6-0.5,0.9-0.8c0.3-0.3,0.6-0.5,0.9-0.8c0.2-0.1,0.3-0.3,0.5-0.4c0.1-0.1,0.3-0.3,0.5-0.4
					c0.3-0.2,0.5-0.3,0.8-0.5c0.2-0.2,0.5-0.3,0.8-0.4c0-0.2,0.1-0.3,0.3-0.4c0.1,0,0.2-0.1,0.3-0.1l0.1-0.1l0.6-0.4
					c0.3-0.3,0.6-0.5,1-0.6c0.1-0.1,0.3-0.1,0.4-0.1c0.1,0,0.3,0,0.4-0.1c0.1-0.1,0.3-0.2,0.3-0.4c0.1-0.1,0.1-0.3-0.1-0.4
					c0-0.2-0.1-0.4-0.3-0.5c-0.2-0.1-0.3-0.3-0.5-0.5c-0.2,0-0.5,0-0.7-0.2c-0.1,0.1-0.1,0.1-0.2,0.1c-0.1,0-0.2,0-0.2,0
					c0,0-0.1,0-0.1,0s0,0-0.1,0c-0.4,0.1-0.8,0.3-1.1,0.6c-0.3,0.3-0.6,0.5-0.9,0.6c-0.4,0.2-0.8,0.4-1.1,0.7
					c-0.5,0.4-1.1,0.9-1.8,1.5s-1.3,1.1-1.8,1.7c-0.6,0.5-1,0.9-1.3,1.2c-0.3,0.4-0.6,0.9-1,1.3c-0.3,0.3-0.5,0.7-0.7,1
					c0,0-0.1,0-0.1,0c-0.3,0.1-0.5,0.3-0.7,0.4c-0.2,0.2-0.5,0.4-0.7,0.6c-0.4,0.2-0.6,0.3-0.7,0.4c0,0-0.1,0.1-0.2,0.1
					c0,0-0.1,0-0.2,0.1c-0.1,0-0.3,0.1-0.7,0.3c-0.3,0.2-0.6,0.3-0.9,0.4c-0.2,0.1-0.5,0.2-0.8,0.4c0-0.4,0-0.9,0.1-1.3
					c0.1-0.6,0.2-1.3,0.3-1.9c0.1-0.7,0.2-1.3,0.4-1.9c0.1-0.6,0.2-1.1,0.2-1.3c0.1-0.4,0.2-0.8,0.3-1.2c0.1-0.4,0.2-0.8,0.1-1.2
					c-0.1-0.4-0.3-0.7-0.6-0.8c-0.3-0.2-0.7-0.4-1.1-0.4c-0.5,0-1,0.2-1.4,0.5c-0.5,0.3-0.9,0.5-1.3,0.8c-1,0.6-2,1.3-2.9,2.2
					c-0.8,0.8-1.7,1.6-2.6,2.4c-0.2,0.1-0.4,0.3-0.6,0.5c-0.2,0.2-0.4,0.3-0.6,0.3c0.2-0.6,0.4-1.1,0.6-1.6c0.2-0.5,0.4-1,0.6-1.4
					c0.1-0.2,0.1-0.4,0.1-0.6c0-0.2,0-0.4,0.1-0.6c0.2-0.3,0.3-0.6,0.5-0.9c0.2-0.3,0.2-0.7,0-1.1c-0.1-0.4-0.4-0.7-0.8-0.7
					c-0.4-0.1-0.9-0.1-1.3,0.2c-0.1,0.1-0.2,0.2-0.3,0.3c-0.1,0.1-0.1,0.2-0.2,0.3c0,0.1,0,0.1,0,0.2c-0.4-0.1-0.9-0.2-1.3-0.2
					c-0.9,0-1.8,0-2.7,0.1c-1,0.1-1.9,0.2-2.7,0.3s-1.5,0.3-1.9,0.4l-0.5-0.7c-0.1-0.1-0.2-0.2-0.4-0.2c-0.2-0.1-0.4-0.1-0.6-0.2
					c-0.2-0.1-0.4-0.1-0.6-0.2c-0.1,0-0.3,0-0.4,0c-0.1,0-0.1,0-0.2,0c-0.1,0.1-0.1,0.1-0.1,0c-0.3-0.1-0.6-0.2-0.9-0.3
					c-0.2-0.2-0.6-0.3-0.9-0.3c-0.3,0.1-0.6,0.2-0.9,0.5c-0.3,0.2-0.6,0.5-0.8,0.8c-0.3,0.3-0.5,0.6-0.7,0.9
					C98.3,71,98,71.5,97.6,72c-0.3,0.4-0.6,0.9-0.8,1.4c-0.1,0-0.1,0-0.1,0.1c0,0.1-0.1,0.2-0.2,0.2l-0.9,2.6c0,0.2-0.1,0.5-0.2,0.7
					c-0.1,0.2-0.1,0.4-0.1,0.6c-0.2,0-0.4,0.1-0.6,0.2l-1,0.2c-0.3,0.1-0.5,0.1-0.7,0.2c-0.2,0-0.3,0.1-0.4,0.1c0,0-0.2,0-0.7,0
					s-1.1,0.1-2,0.3s-1.9,0.3-3,0.5s-2.4,0.5-3.7,0.8c0.1-0.3,0.2-0.4,0.4-0.4c0.2-0.4,0.5-0.8,0.9-1.1c0.7-0.5,1.3-1,1.9-1.6
					c0.6-0.6,1.3-1.2,2-1.7c0.7-0.5,1.3-1,1.9-1.4c0.2-0.1,0.4-0.2,0.6-0.4c0.2-0.2,0.3-0.4,0.4-0.7c0.3,0,0.4-0.1,0.4-0.2
					c0.4-0.2,0.6-0.5,0.8-0.9c0.4-0.2,0.8-0.6,0.9-1.1c0.2-0.5,0.1-1-0.2-1.4c-0.2-0.2-0.7-0.3-1.4-0.3c-0.8,0.1-1.5,0.2-2.3,0.3
					c-0.8,0.2-1.6,0.3-2.4,0.5c-0.5,0.1-1.1,0.2-1.7,0.3c-0.4,0.1-0.8,0.2-1.3,0.3c-0.5,0.1-0.9,0.3-1.4,0.5c-0.4,0.2-0.7,0.5-1,0.9
					c-0.2,0.4-0.3,0.9-0.2,1.4c0,0.3,0.2,0.5,0.4,0.6c0.2,0.1,0.5,0.2,0.7,0.2c0,0,0.1,0,0.1,0c0,0,0,0,0,0c-0.3,0.1-0.7,0.2-1,0.4
					l-0.8,0.5c-0.2,0.1-0.5,0.3-0.7,0.4c-0.3,0.1-0.6,0.2-0.8,0.3c-0.9,0.3-1.7,0.7-2.6,1.1c-0.9,0.4-1.6,0.8-2.3,1.1
					c-0.7,0.3-1.3,0.6-1.8,0.8c-0.5,0.2-0.8,0.2-0.9,0.1c-0.1-0.1-0.1-0.3,0-0.7c0.1-0.4,0.3-0.8,0.5-1.2c0.2-0.5,0.5-0.9,0.8-1.5
					c0.3-0.5,0.5-1,0.8-1.5c0.1,0,0.1-0.1,0.1-0.2c0-0.1,0-0.1,0.1-0.2c0,0,0.1,0,0.1,0c0,0,0,0,0.1,0c0.1-0.1,0.1-0.3,0.2-0.4
					c0-0.1,0.1-0.2,0.2-0.3c0.2-0.2,0.2-0.5,0.2-0.8C75,71.4,75,71.2,75,71c0-0.1,0-0.3-0.1-0.6c0-0.2-0.1-0.3-0.2-0.4
					c-0.1-0.1-0.2-0.2-0.3-0.4c-0.1,0.1-0.3,0.1-0.4,0c-0.1-0.1-0.3-0.1-0.4,0c-0.3,0-0.5,0.2-0.8,0.3c-0.5,0.7-0.9,1.5-1.3,2.2
					c-0.4,0.8-0.8,1.6-1.2,2.4c-0.1,0.3-0.2,0.6-0.4,0.9c-0.1,0.3-0.3,0.6-0.4,0.9c-0.1,0.3-0.2,0.5-0.3,0.8
					c-0.1,0.2-0.2,0.5-0.3,0.8c-0.2,0.5-0.3,1-0.4,1.4c-0.1,0.4-0.1,0.8,0,1.2c0.2,0.4,0.6,0.6,1,0.7c0.5,0.1,0.9,0.2,1.4,0.2
					c0.1,0,0.1,0,0.2,0c0,0,0.1,0,0.2-0.1c0.2,0.1,0.7,0,1.3-0.4c0.6-0.4,1.4-0.8,2.1-1.4s1.5-1,2.2-1.5c0.5-0.4,1-0.7,1.6-0.9
					c0.4-0.2,0.8-0.4,1.3-0.7c0.4-0.2,0.8-0.5,1.1-0.8c0.4-0.2,0.7-0.4,1-0.6c0.3-0.2,0.6-0.5,0.9-0.7l0.4-0.3
					c0.1-0.2,0.2-0.4,0.3-0.6c0,0-0.1,0-0.1,0c0,0,0,0,0,0c0.1,0,0.1,0,0.2-0.1c0.2-0.1,0.4-0.2,0.5-0.4l0.2-0.1
					c0.3-0.2,0.6-0.5,1-0.6c0.4-0.2,0.9-0.4,1.3-0.6c0.5-0.2,0.9-0.4,1.4-0.5c0.4-0.1,0.8-0.2,1.3-0.2c0.2,0,0.3,0,0.3,0.1
					c0,0.1-0.1,0.2-0.2,0.3c-0.1,0.1-0.3,0.3-0.5,0.5c-0.2,0.2-0.4,0.4-0.6,0.6c-0.1,0.2-0.2,0.3-0.4,0.4c-0.1,0.1-0.2,0.1-0.3,0.1
					c-0.1,0-0.2,0.1-0.3,0.1c-0.1,0.1-0.2,0.3-0.3,0.4c-0.1,0.1-0.1,0.1-0.2,0.2c-0.1,0.1-0.2,0.1-0.2,0.2c-0.1,0.1-0.2,0.1-0.3,0.2
					c-0.2,0.2-0.4,0.3-0.6,0.5c-0.2,0.2-0.4,0.4-0.6,0.5c-0.1,0.1-0.2,0.2-0.3,0.3c-0.4,0.4-0.9,0.8-1.4,1.1
					c-0.6,0.4-1.1,0.9-1.6,1.4c-0.5,0.5-0.9,1-1.1,1.7c-0.3,0.6-0.3,1.3-0.1,1.9c0.1,0.1,0.1,0.2,0.1,0.3s0.1,0.1,0.3,0.2
					c0.2,0.1,0.3,0.2,0.5,0.3c0.1,0.1,0.3,0.1,0.4,0.1c0.2,0.1,0.4,0.1,0.6,0c0.2-0.1,0.4-0.1,0.6,0c0.2-0.1,0.4-0.1,0.6-0.2
					c0.2,0,0.3-0.1,0.5-0.2c0.1,0.1,0.3,0.1,0.4,0.1c0.1,0,0.2-0.1,0.4-0.1c0.4,0.1,0.9,0,1.3-0.1c0.5-0.1,1.1-0.3,1.7-0.5
					s1.2-0.4,1.7-0.6c0.4-0.2,0.9-0.3,1.3-0.4c-0.1,0,0,0,0.3-0.1s0.7-0.1,1.2-0.2s0.9-0.2,1.3-0.3c0.3-0.1,0.5-0.1,0.7-0.2
					c0.4-0.1,0.8-0.2,1.2-0.4c0.1,0.2,0.2,0.4,0.3,0.6c0.3,0.4,0.6,0.7,1,0.9c0.4,0.2,0.9,0.4,1.4,0.4c0.5,0,1.1,0,1.6-0.2
					c0.5,0,1-0.1,1.4-0.4c0.5-0.3,1-0.7,1.5-1c0.6-0.5,1.2-1.1,1.7-1.7c0.3-0.2,0.6-0.6,0.7-0.9c0.2-0.4,0.4-0.8,0.7-1
					c0.1-0.2,0.3-0.5,0.4-0.7c0.1-0.3,0.2-0.5,0.3-0.7c0.2-0.2,0.3-0.4,0.3-0.7c0.1-0.3,0.1-0.5,0.1-0.8v-0.2c0-0.1,0-0.2,0.1-0.3
					c0.3-0.1,0.8-0.2,1.3-0.3s1-0.2,1.6-0.4c0.5-0.1,1.1-0.2,1.6-0.3c0.5-0.1,1-0.1,1.5-0.1c0.4,0,0.7,0,0.9,0
					c-0.1,0.1-0.2,0.3-0.3,0.5c-0.5,1.2-1,2.4-1.5,3.6c-0.6,1.2-1,2.5-1.3,3.9c-0.1,0.3-0.2,0.5-0.3,0.8c-0.1,0.2-0.1,0.4-0.1,0.6
					c0.1,0.3,0.3,0.6,0.6,0.7c0.3,0.2,0.6,0.3,0.9,0.2c0.6-0.3,1.2-0.8,1.6-1.3c0.7-0.8,1.7-1.8,2.8-3.1c0.4-0.4,0.8-0.7,1.2-1
					c0.4-0.3,0.8-0.6,1.1-0.9c0.6-0.6,1.2-1.1,1.7-1.6c0.6-0.5,1.2-1,1.8-1.4l0.6-0.5c0.2-0.2,0.5-0.3,0.7-0.4
					c-0.1,0.4-0.2,0.8-0.3,1.1c-0.1,0.4-0.2,0.8-0.2,1.3c0,0.2-0.1,0.6-0.2,1.1s-0.2,1.1-0.4,1.7s-0.2,1.2-0.3,1.7
					c-0.1,0.3-0.1,0.7-0.2,1c0,0.5,0.2,0.9,0.4,1.3c0.3,0.5,0.6,0.7,1,0.6c0.3,0,0.5,0,0.8-0.1c0.3,0,0.6-0.1,0.9-0.2
					c0.5-0.2,0.9-0.4,1.3-0.7c0.4-0.3,0.8-0.6,1.3-0.8c0.2-0.2,0.4-0.3,0.6-0.4c-0.1,0.4,0,0.8,0.4,1c0.2,0.2,0.4,0.3,0.7,0.3
					c0.3,0,0.5,0,0.8,0.1c0.1,0.1,0.3,0.1,0.4,0.1h0.4c0.3,0,0.5,0,0.7-0.1c0.3-0.1,0.5-0.3,0.7-0.4c0.9-0.4,1.7-0.8,2.5-1.4
					c0.1-0.1,0.2-0.2,0.3-0.2c0.1-0.1,0.2-0.1,0.3-0.1c0,0,0,0,0-0.1c0-0.1,0-0.1,0-0.1c0.1-0.1,0.2-0.1,0.3-0.2
					c0.1-0.1,0.2-0.2,0.3-0.3c0.2-0.1,0.4-0.2,0.6-0.4c0.2-0.2,0.3-0.4,0.5-0.6c0.1-0.1,0.2-0.1,0.3-0.2c0.1,0,0.1-0.1,0.2-0.1
					c0,0,0.1,0,0.1-0.1c0-0.1,0.1-0.1,0.1,0c-0.1,0.4-0.1,0.8-0.1,1.2c0,0.3,0.1,0.7,0.1,1c0.1,0.2,0.2,0.4,0.3,0.6
					c0.2,0.2,0.4,0.4,0.6,0.5c0.1,0,0.2,0.1,0.3,0.1c0.1,0,0.1,0.1,0.2,0.1c0.6,0.2,1.3,0.2,1.9,0c0.5-0.2,1-0.4,1.5-0.7
					c0.5-0.3,0.9-0.7,1.4-1c0.4-0.4,0.9-0.7,1.5-0.9c0.1,0,0.2,0,0.4-0.1c0.4-0.3,0.7-0.5,1.1-0.8c0.1-0.3,0.2-0.4,0.4-0.5
					c0.1,0,0.3-0.1,0.4-0.2c0.4-0.3,0.5-0.5,0.3-0.7C147.9,74.7,147.3,74.8,146.3,75.2 M103.7,73.3c-0.3,0.7-0.6,1.4-0.9,2
					c-0.4,0.6-0.6,1.1-0.8,1.3l-0.3,0.4c-0.5,0.5-1,0.9-1.5,1.3c-0.6,0.4-1.3,0.8-2,1c-0.2-0.5-0.3-1-0.1-1.5c0.2-0.5,0.3-1,0.4-1.4
					c0.1-0.4,0.2-0.7,0.4-1c0.2-0.4,0.5-0.9,0.7-1.3s0.5-0.9,0.8-1.3c0.3-0.4,0.5-0.7,0.7-0.9c0.2-0.3,0.3-0.5,0.4-0.8
					c0.1-0.2,0.3-0.4,0.5-0.6l0.2-0.2c0.1,0.1,0.3,0.2,0.5,0.2c0.2,0,0.3,0,0.5,0.1c0.6,0,0.9,0.3,0.9,0.8
					C104.1,72,103.9,72.7,103.7,73.3"/>
				<path id="Path_15" class="st1" d="M206.6,60.6l28.3-3.7l2.4-8.6l-32.5,11.8L206.6,60.6z"/>
				<path id="Path_16" class="st1" d="M176.5,45.4l0.1,6.8l19.1,5.3L176.5,45.4z"/>
				<path id="Path_17" class="st1" d="M201.7,59.2l1.5-34.3l-8.3-2.3l6.4,36.5L201.7,59.2z"/>
				<path id="Path_18" class="st1" d="M203.1,59.6L229,32.1l-9-2.5l-17.4,29.9L203.1,59.6z"/>
				<path id="Path_19" class="st1" d="M204.2,59.9l34.9-18.1l1.8-6.4l-5.9-1.6l-31.5,25.9L204.2,59.9z"/>
				<path id="Path_20" class="st1" d="M202.4,59.4l13-31.1l-7.3-2l-6.1,33L202.4,59.4z"/>
				<path id="Path_21" class="st1" d="M200.9,59l-11.7-37.9l-2.1-0.6l-2.6,9.1l-1-0.3l16.8,29.6L200.9,59z"/>
				<path id="Path_22" class="st1" d="M209.1,61.3l22.7,6.3l1.8-6.2L209.1,61.3z"/>
				<path id="Path_23" class="st1" d="M197.9,58.2l1.6,0.5l-23.3-30.3l0.2,11.8L197.9,58.2z"/>
				<path id="Path_24" class="st0" d="M185.4,14.5l-2.6,9.1l-3.2-0.9l0-0.1l0,0l-7.7-2.2l0.4,33.4l24,7c0.9,0.6,1.5,1.7,1.4,2.8
					c0,2.3-1.5,3.5-3.2,4.6c-2,1.1-2.8,3.7-1.7,5.7c0.1,0.3,0.3,0.5,0.5,0.8c2.1,2.6,7.2,4.1,10.3,3c2.2-0.7,3.5-3,2.9-5.2
					c-0.1-0.2-0.2-0.5-0.3-0.7c-0.3-0.6-0.6-1.3-0.8-2c-0.5-1.6-0.1-3.4,1.1-4.5c0.5-0.6,1.3-0.9,2.1-0.9l27.2,7.9l11.5-39.8
					L185.4,14.5z M176.6,52.3l-0.1-6.8l19.2,12.2L176.6,52.3z M231.8,67.6l-22.7-6.3l24.5,0.1L231.8,67.6z M204.8,60.1l32.5-11.8
					l-2.4,8.6l-28.3,3.7l-5,0.7l-3.7-3.1l-21.5-18l-0.2-11.8l23.3,30.3l2,2.6l-1.4-2.4l-15.9-29.6l0.2,0.3l2.6-9.1l2.1,0.6L200.9,59
					l0.7,2.3l-0.4-2.2l-6.4-36.5l8.3,2.3l-1.5,34.3l-0.1,2l0.4-2l6.1-33l7.3,2l-13,31.1l-0.8,1.8l1-1.8L220,29.6l9,2.5l-25.9,27.5
					l-1.5,1.6l1.9-1.5L235,33.8l5.9,1.6l-1.8,6.4l-34.9,18.1l-2.6,1.3L204.8,60.1z"/>
			</g>
		</g>
	</g>
</g>
</svg>
